Coordinates
version=1
nRows=8
nColumns=40
inDegrees=yes

Units are S.I. units (second, meters, Newtons, ...)
If the header above contains a line with 'inDegrees', this indicates whether rotational values are in degrees (yes) or radians (no).

endheader
time	pelvis_tilt	pelvis_list	pelvis_rotation	pelvis_tx	pelvis_ty	pelvis_tz	hip_flexion_r	hip_adduction_r	hip_rotation_r	knee_angle_r	knee_angle_r_beta	ankle_angle_r	subtalar_angle_r	mtp_angle_r	hip_flexion_l	hip_adduction_l	hip_rotation_l	knee_angle_l	knee_angle_l_beta	ankle_angle_l	subtalar_angle_l	mtp_angle_l	lumbar_extension	lumbar_bending	lumbar_rotation	arm_flex_r	arm_add_r	arm_rot_r	elbow_flex_r	pro_sup_r	wrist_flex_r	wrist_dev_r	arm_flex_l	arm_add_l	arm_rot_l	elbow_flex_l	pro_sup_l	wrist_flex_l	wrist_dev_l
      0.00500000	     -6.59789546	      2.44314102	      7.61995723	     -0.59386863	      0.89906099	      0.17403919	     32.23296064	    -10.66757784	    -29.72782491	      6.87078237	      0.11991777	     -0.47276858	     14.55935350	      0.00000000	    -12.96373932	      2.56035101	    -14.46548786	      5.44663853	      0.09506178	      2.91348540	     16.32096719	      0.00000000	     14.67563532	     -1.38756349	     -1.80234957	     31.46718729	    -13.53669195	     31.46718729	     80.62679844	     43.55456433	      0.00000000	      0.00000000	     31.46718729	    -13.53669195	     31.46718729	     80.62679844	     43.55456433	      0.00000000	      0.00000000
      0.01000000	     -6.59969402	      2.42049969	      7.71277858	     -0.58933345	      0.89841454	      0.17426495	     32.25377468	    -10.64993283	    -29.60194278	      6.89626700	      0.12036257	     -0.41424090	     14.53828389	      0.00000000	    -13.18943123	      2.41863362	    -14.37668212	      5.56986348	      0.09721246	      2.81100877	     16.35470607	      0.00000000	     14.68766169	     -1.32771084	     -1.84968039	     31.47044682	    -13.53726867	     31.47044682	     80.62243053	     43.55766339	      0.00000000	      0.00000000	     31.47044682	    -13.53726867	     31.47044682	     80.62243053	     43.55766339	      0.00000000	      0.00000000
      0.01500000	     -6.60874389	      2.41031002	      7.81028868	     -0.58410819	      0.89767249	      0.17456853	     32.26698553	    -10.64004258	    -29.47441703	      6.93771762	      0.12108602	     -0.40095026	     14.52552482	      0.00000000	    -13.45426921	      2.27779133	    -14.29221822	      5.68597151	      0.09923892	      2.73029070	     16.37818726	      0.00000000	     14.76960009	     -1.29200825	     -1.87353799	     31.47150178	    -13.53745522	     31.47150178	     80.62101894	     43.55866314	      0.00000000	      0.00000000	     31.47150178	    -13.53745522	     31.47150178	     80.62101894	     43.55866314	      0.00000000	      0.00000000
      0.02000000	     -6.31559197	      2.18675515	      8.11128850	     -0.57854910	      0.89744301	      0.17448568	     31.78566678	    -10.42049518	    -29.43266668	      6.74431202	      0.11771045	     -0.40737441	     13.99617272	      0.00000000	    -13.93898749	      1.79638422	    -14.13036950	      5.96817614	      0.10416432	      2.58150111	     16.47058217	      0.00000000	     14.45348524	     -0.98057636	     -2.22467757	     31.49524397	    -13.54165423	     31.49524397	     80.58925903	     43.58107992	      0.00000000	      0.00000000	     31.49524397	    -13.54165423	     31.49524397	     80.58925903	     43.58107992	      0.00000000	      0.00000000
      0.02500000	     -6.33144960	      2.15721223	      8.22219802	     -0.57224881	      0.89657365	      0.17480487	     31.77371196	    -10.39715432	    -29.22465593	      6.83849413	      0.11935424	     -0.43065691	     13.98511742	      0.00000000	    -14.24287440	      1.61205114	    -14.01002046	      6.11665190	      0.10675571	      2.45500550	     16.49705550	      0.00000000	     14.57301976	     -0.91616746	     -2.26793024	     31.49636680	    -13.54185256	     31.49636680	     80.58776270	     43.58212870	      0.00000000	      0.00000000	     31.49636680	    -13.54185256	     31.49636680	     80.58776270	     43.58212870	      0.00000000	      0.00000000
      0.03000000	     -6.07420962	      1.94811983	      8.49814547	     -0.56582992	      0.89616411	      0.17479349	     31.39526068	    -10.21098395	    -29.08782977	      6.89525799	      0.12034495	     -0.44918996	     13.22869637	      0.00000000	    -14.71014768	      1.13670213	    -13.83356131	      6.44821362	      0.11254256	      2.13713034	     16.45720588	      0.00000000	     14.29593501	     -0.58533870	     -2.58804061	     31.51039316	    -13.54433078	     31.51039316	     80.56906672	     43.59520669	      0.00000000	      0.00000000	     31.51039316	    -13.54433078	     31.51039316	     80.56906672	     43.59520669	      0.00000000	      0.00000000
      0.03500000	     -6.07867126	      1.89645481	      8.62517066	     -0.55865467	      0.89526945	      0.17511181	     31.32252325	    -10.16395500	    -28.82729514	      7.03845987	      0.12284430	     -0.51992521	     13.19523955	      0.00000000	    -15.05319614	      0.91116701	    -13.68912380	      6.62727856	      0.11566783	      1.97576663	     16.47561968	      0.00000000	     14.45418310	     -0.50343023	     -2.64689116	     31.51153989	    -13.54453320	     31.51153989	     80.56754235	     43.59626839	      0.00000000	      0.00000000	     31.51153989	    -13.54453320	     31.51153989	     80.56754235	     43.59626839	      0.00000000	      0.00000000
      0.04000000	     -5.65146120	      1.48648322	      8.92753096	     -0.55158018	      0.89518343	      0.17506342	     30.55748146	     -9.64207242	    -28.46996918	      6.72671760	      0.11740337	     -1.09869637	     11.81223727	      0.00000000	    -15.67993220	      0.17527629	    -13.52026223	      6.98469004	      0.12190584	      1.53134049	     16.27939983	      0.00000000	     14.02844051	     -0.08327474	     -3.39984347	     31.55119890	    -13.55153159	     31.55119890	     80.51491954	     43.63265334	      0.00000000	      0.00000000	     31.55119890	    -13.55153159	     31.55119890	     80.51491954	     43.63265334	      0.00000000	      0.00000000
